<svg width="307" height="139" viewBox="0 0 307 139" fill="none" xmlns="http://www.w3.org/2000/svg">
<circle cx="2.28732" cy="136.476" r="2.28732" transform="rotate(-90 2.28732 136.476)" fill="#5EBA00"/>
<circle cx="2.28732" cy="102.929" r="2.28732" transform="rotate(-90 2.28732 102.929)" fill="#5EBA00"/>
<circle cx="2.28732" cy="69.3819" r="2.28732" transform="rotate(-90 2.28732 69.3819)" fill="#5EBA00"/>
<circle cx="2.28732" cy="35.8346" r="2.28732" transform="rotate(-90 2.28732 35.8346)" fill="#5EBA00"/>
<circle cx="2.28732" cy="2.28733" r="2.28732" transform="rotate(-90 2.28732 2.28733)" fill="#5EBA00"/>
<circle cx="35.8346" cy="136.477" r="2.28732" transform="rotate(-90 35.8346 136.477)" fill="#5EBA00"/>
<circle cx="35.8346" cy="102.929" r="2.28732" transform="rotate(-90 35.8346 102.929)" fill="#5EBA00"/>
<circle cx="35.8346" cy="69.382" r="2.28732" transform="rotate(-90 35.8346 69.382)" fill="#5EBA00"/>
<circle cx="35.8346" cy="35.8346" r="2.28732" transform="rotate(-90 35.8346 35.8346)" fill="#5EBA00"/>
<circle cx="35.8346" cy="2.28733" r="2.28732" transform="rotate(-90 35.8346 2.28733)" fill="#5EBA00"/>
<circle cx="69.3819" cy="136.477" r="2.28732" transform="rotate(-90 69.3819 136.477)" fill="#5EBA00"/>
<circle cx="69.3819" cy="102.929" r="2.28732" transform="rotate(-90 69.3819 102.929)" fill="#5EBA00"/>
<circle cx="69.3819" cy="69.382" r="2.28732" transform="rotate(-90 69.3819 69.382)" fill="#5EBA00"/>
<circle cx="69.382" cy="35.8346" r="2.28732" transform="rotate(-90 69.382 35.8346)" fill="#5EBA00"/>
<circle cx="69.382" cy="2.28733" r="2.28732" transform="rotate(-90 69.382 2.28733)" fill="#5EBA00"/>
<circle cx="102.929" cy="136.477" r="2.28732" transform="rotate(-90 102.929 136.477)" fill="#5EBA00"/>
<circle cx="102.929" cy="102.929" r="2.28732" transform="rotate(-90 102.929 102.929)" fill="#5EBA00"/>
<circle cx="102.929" cy="69.382" r="2.28732" transform="rotate(-90 102.929 69.382)" fill="#5EBA00"/>
<circle cx="102.929" cy="35.8346" r="2.28732" transform="rotate(-90 102.929 35.8346)" fill="#5EBA00"/>
<circle cx="102.929" cy="2.28733" r="2.28732" transform="rotate(-90 102.929 2.28733)" fill="#5EBA00"/>
<circle cx="136.477" cy="136.477" r="2.28732" transform="rotate(-90 136.477 136.477)" fill="#5EBA00"/>
<circle cx="136.477" cy="102.929" r="2.28732" transform="rotate(-90 136.477 102.929)" fill="#5EBA00"/>
<circle cx="136.477" cy="69.382" r="2.28732" transform="rotate(-90 136.477 69.382)" fill="#5EBA00"/>
<circle cx="136.477" cy="35.8346" r="2.28732" transform="rotate(-90 136.477 35.8346)" fill="#5EBA00"/>
<circle cx="136.477" cy="2.28733" r="2.28732" transform="rotate(-90 136.477 2.28733)" fill="#5EBA00"/>
<circle cx="170.024" cy="136.477" r="2.28732" transform="rotate(-90 170.024 136.477)" fill="#5EBA00"/>
<circle cx="170.024" cy="102.929" r="2.28732" transform="rotate(-90 170.024 102.929)" fill="#5EBA00"/>
<circle cx="170.024" cy="69.3819" r="2.28732" transform="rotate(-90 170.024 69.3819)" fill="#5EBA00"/>
<circle cx="170.024" cy="35.8346" r="2.28732" transform="rotate(-90 170.024 35.8346)" fill="#5EBA00"/>
<circle cx="170.024" cy="2.28733" r="2.28732" transform="rotate(-90 170.024 2.28733)" fill="#5EBA00"/>
<circle cx="203.571" cy="136.477" r="2.28732" transform="rotate(-90 203.571 136.477)" fill="#5EBA00"/>
<circle cx="203.571" cy="102.929" r="2.28732" transform="rotate(-90 203.571 102.929)" fill="#5EBA00"/>
<circle cx="203.571" cy="69.382" r="2.28732" transform="rotate(-90 203.571 69.382)" fill="#5EBA00"/>
<circle cx="203.571" cy="35.8346" r="2.28732" transform="rotate(-90 203.571 35.8346)" fill="#5EBA00"/>
<circle cx="203.571" cy="2.28733" r="2.28732" transform="rotate(-90 203.571 2.28733)" fill="#5EBA00"/>
<circle cx="237.119" cy="136.477" r="2.28732" transform="rotate(-90 237.119 136.477)" fill="#5EBA00"/>
<circle cx="237.119" cy="102.929" r="2.28732" transform="rotate(-90 237.119 102.929)" fill="#5EBA00"/>
<circle cx="237.119" cy="69.382" r="2.28732" transform="rotate(-90 237.119 69.382)" fill="#5EBA00"/>
<circle cx="237.119" cy="35.8346" r="2.28732" transform="rotate(-90 237.119 35.8346)" fill="#5EBA00"/>
<circle cx="237.119" cy="2.28733" r="2.28732" transform="rotate(-90 237.119 2.28733)" fill="#5EBA00"/>
<circle cx="270.666" cy="136.477" r="2.28732" transform="rotate(-90 270.666 136.477)" fill="#5EBA00"/>
<circle cx="270.666" cy="102.929" r="2.28732" transform="rotate(-90 270.666 102.929)" fill="#5EBA00"/>
<circle cx="270.666" cy="69.382" r="2.28732" transform="rotate(-90 270.666 69.382)" fill="#5EBA00"/>
<circle cx="270.666" cy="35.8346" r="2.28732" transform="rotate(-90 270.666 35.8346)" fill="#5EBA00"/>
<circle cx="270.666" cy="2.28733" r="2.28732" transform="rotate(-90 270.666 2.28733)" fill="#5EBA00"/>
<circle cx="304.213" cy="136.477" r="2.28732" transform="rotate(-90 304.213 136.477)" fill="#5EBA00"/>
<circle cx="304.213" cy="102.929" r="2.28732" transform="rotate(-90 304.213 102.929)" fill="#5EBA00"/>
<circle cx="304.213" cy="69.382" r="2.28732" transform="rotate(-90 304.213 69.382)" fill="#5EBA00"/>
<circle cx="304.213" cy="35.8346" r="2.28732" transform="rotate(-90 304.213 35.8346)" fill="#5EBA00"/>
<circle cx="304.213" cy="2.28733" r="2.28732" transform="rotate(-90 304.213 2.28733)" fill="#5EBA00"/>
</svg>
