<svg width="142" height="314" viewBox="0 0 142 314" fill="none" xmlns="http://www.w3.org/2000/svg">
<circle cx="139.659" cy="311.308" r="2.34066" transform="rotate(-180 139.659 311.308)" fill="#5EBA00"/>
<circle cx="105.33" cy="311.308" r="2.34066" transform="rotate(-180 105.33 311.308)" fill="#5EBA00"/>
<circle cx="71.0002" cy="311.308" r="2.34066" transform="rotate(-180 71.0002 311.308)" fill="#5EBA00"/>
<circle cx="36.6703" cy="311.308" r="2.34066" transform="rotate(-180 36.6703 311.308)" fill="#5EBA00"/>
<circle cx="2.34074" cy="311.308" r="2.34066" transform="rotate(-180 2.34074 311.308)" fill="#5EBA00"/>
<circle cx="139.659" cy="276.978" r="2.34066" transform="rotate(-180 139.659 276.978)" fill="#5EBA00"/>
<circle cx="105.33" cy="276.978" r="2.34066" transform="rotate(-180 105.33 276.978)" fill="#5EBA00"/>
<circle cx="71.0002" cy="276.978" r="2.34066" transform="rotate(-180 71.0002 276.978)" fill="#5EBA00"/>
<circle cx="36.6703" cy="276.978" r="2.34066" transform="rotate(-180 36.6703 276.978)" fill="#5EBA00"/>
<circle cx="2.34074" cy="276.978" r="2.34066" transform="rotate(-180 2.34074 276.978)" fill="#5EBA00"/>
<circle cx="139.659" cy="242.648" r="2.34066" transform="rotate(-180 139.659 242.648)" fill="#5EBA00"/>
<circle cx="105.33" cy="242.648" r="2.34066" transform="rotate(-180 105.33 242.648)" fill="#5EBA00"/>
<circle cx="71.0002" cy="242.648" r="2.34066" transform="rotate(-180 71.0002 242.648)" fill="#5EBA00"/>
<circle cx="36.6703" cy="242.648" r="2.34066" transform="rotate(-180 36.6703 242.648)" fill="#5EBA00"/>
<circle cx="2.34074" cy="242.648" r="2.34066" transform="rotate(-180 2.34074 242.648)" fill="#5EBA00"/>
<circle cx="139.659" cy="208.319" r="2.34066" transform="rotate(-180 139.659 208.319)" fill="#5EBA00"/>
<circle cx="105.33" cy="208.319" r="2.34066" transform="rotate(-180 105.33 208.319)" fill="#5EBA00"/>
<circle cx="71.0002" cy="208.319" r="2.34066" transform="rotate(-180 71.0002 208.319)" fill="#5EBA00"/>
<circle cx="36.6703" cy="208.319" r="2.34066" transform="rotate(-180 36.6703 208.319)" fill="#5EBA00"/>
<circle cx="2.34074" cy="208.319" r="2.34066" transform="rotate(-180 2.34074 208.319)" fill="#5EBA00"/>
<circle cx="139.659" cy="173.989" r="2.34066" transform="rotate(-180 139.659 173.989)" fill="#5EBA00"/>
<circle cx="105.33" cy="173.989" r="2.34066" transform="rotate(-180 105.33 173.989)" fill="#5EBA00"/>
<circle cx="71.0002" cy="173.989" r="2.34066" transform="rotate(-180 71.0002 173.989)" fill="#5EBA00"/>
<circle cx="36.6703" cy="173.989" r="2.34066" transform="rotate(-180 36.6703 173.989)" fill="#5EBA00"/>
<circle cx="2.34074" cy="173.989" r="2.34066" transform="rotate(-180 2.34074 173.989)" fill="#5EBA00"/>
<circle cx="139.659" cy="139.659" r="2.34066" transform="rotate(-180 139.659 139.659)" fill="#5EBA00"/>
<circle cx="105.33" cy="139.659" r="2.34066" transform="rotate(-180 105.33 139.659)" fill="#5EBA00"/>
<circle cx="71.0002" cy="139.659" r="2.34066" transform="rotate(-180 71.0002 139.659)" fill="#5EBA00"/>
<circle cx="36.6703" cy="139.659" r="2.34066" transform="rotate(-180 36.6703 139.659)" fill="#5EBA00"/>
<circle cx="2.34074" cy="139.659" r="2.34066" transform="rotate(-180 2.34074 139.659)" fill="#5EBA00"/>
<circle cx="139.659" cy="105.33" r="2.34066" transform="rotate(-180 139.659 105.33)" fill="#5EBA00"/>
<circle cx="105.33" cy="105.33" r="2.34066" transform="rotate(-180 105.33 105.33)" fill="#5EBA00"/>
<circle cx="71.0002" cy="105.33" r="2.34066" transform="rotate(-180 71.0002 105.33)" fill="#5EBA00"/>
<circle cx="36.6703" cy="105.33" r="2.34066" transform="rotate(-180 36.6703 105.33)" fill="#5EBA00"/>
<circle cx="2.34074" cy="105.33" r="2.34066" transform="rotate(-180 2.34074 105.33)" fill="#5EBA00"/>
<circle cx="139.659" cy="71" r="2.34066" transform="rotate(-180 139.659 71)" fill="#5EBA00"/>
<circle cx="105.33" cy="71" r="2.34066" transform="rotate(-180 105.33 71)" fill="#5EBA00"/>
<circle cx="71.0002" cy="71" r="2.34066" transform="rotate(-180 71.0002 71)" fill="#5EBA00"/>
<circle cx="36.6703" cy="71" r="2.34066" transform="rotate(-180 36.6703 71)" fill="#5EBA00"/>
<circle cx="2.34074" cy="71" r="2.34066" transform="rotate(-180 2.34074 71)" fill="#5EBA00"/>
<circle cx="139.659" cy="36.6703" r="2.34066" transform="rotate(-180 139.659 36.6703)" fill="#5EBA00"/>
<circle cx="105.33" cy="36.6703" r="2.34066" transform="rotate(-180 105.33 36.6703)" fill="#5EBA00"/>
<circle cx="71.0002" cy="36.6703" r="2.34066" transform="rotate(-180 71.0002 36.6703)" fill="#5EBA00"/>
<circle cx="36.6703" cy="36.6703" r="2.34066" transform="rotate(-180 36.6703 36.6703)" fill="#5EBA00"/>
<circle cx="2.34074" cy="36.6703" r="2.34066" transform="rotate(-180 2.34074 36.6703)" fill="#5EBA00"/>
<circle cx="139.659" cy="2.34068" r="2.34066" transform="rotate(-180 139.659 2.34068)" fill="#5EBA00"/>
<circle cx="105.33" cy="2.34067" r="2.34066" transform="rotate(-180 105.33 2.34067)" fill="#5EBA00"/>
<circle cx="71.0002" cy="2.34067" r="2.34066" transform="rotate(-180 71.0002 2.34067)" fill="#5EBA00"/>
<circle cx="36.6703" cy="2.34067" r="2.34066" transform="rotate(-180 36.6703 2.34067)" fill="#5EBA00"/>
<circle cx="2.34074" cy="2.34067" r="2.34066" transform="rotate(-180 2.34074 2.34067)" fill="#5EBA00"/>
</svg>
